<svg width="70" height="77" viewBox="0 0 70 77" xmlns="http://www.w3.org/2000/svg">
<path d="M67.3065 58.9326L36.2605 76.4148V62.7946L55.6051 52.1977L67.3065 58.9326ZM69.435 57.0164V20.4422L58.0695 26.9782V50.4804L69.435 57.0164ZM2.48397 58.9326L33.53 76.4148V62.7946L14.1853 52.1977L2.48397 58.9326ZM0.355469 57.0164V20.4422L11.7209 26.9782V50.4804L0.355469 57.0164ZM1.68578 18.0746L33.53 0.143555V13.315L12.9813 24.5702L1.68578 18.0746ZM68.1047 18.0746L36.2605 0.143555V13.315L56.8091 24.5702L68.1047 18.0746ZM33.53 59.7039L14.4514 49.2469V28.5451L33.53 39.5181V59.7039ZM36.2605 59.7039L55.339 49.2469V28.5451L36.2605 39.5181V59.7039ZM15.7387 26.1532L34.9006 15.6692L54.0625 26.1532L34.9006 37.1692L15.7387 26.1532Z"/>
</svg>
